<?xml version="1.0" encoding="UTF-8" standalone="no"?>
<!-- Created with Inkscape (http://www.inkscape.org/) -->

<svg
   width="100"
   height="100"
   viewBox="0 0 100 100"
   version="1.1"
   id="svg1"
   xmlns="http://www.w3.org/2000/svg"
   xmlns:svg="http://www.w3.org/2000/svg">
  <defs
     id="defs1">
    <rect
       x="12.553028"
       y="20.642758"
       width="70.575915"
       height="64.159922"
       id="rect1" />
  </defs>
  <path
     id="path9"
     style="fill:#f9f9f9;fill-opacity:1;stroke:none;stroke-width:3.59134;stroke-opacity:1"
     d="M 50 -0.24804688 L 48.474609 1.8125 C 39.855745 13.447173 31.232992 25.0788 22.613281 36.712891 C 25.871125 57.141989 29.134801 77.570891 32.392578 98 L 34.269531 100 L 65.730469 100 L 67.607422 98 C 70.865198 77.570891 74.128875 57.141989 77.386719 36.712891 C 68.258318 24.391926 59.127601 12.073467 50 -0.24804688 z " />
  <path
     style="fill:#262626;fill-opacity:1;stroke:none;stroke-width:3.59134;stroke-opacity:1"
     d="M 73.448179,37.617636 50,5.9744074 26.551822,37.617636 35.931093,96.38363 h 28.137815"
     id="path2" />
  <path
     style="fill:#808080;fill-opacity:1;stroke:none;stroke-width:2;stroke-dasharray:none;stroke-opacity:1"
     d="M 26.551822,37.617636 50,44.592361 73.448179,37.617636 64.068908,96.38363 H 35.931093 Z"
     id="path18" />
  <path
     id="path10"
     style="fill:#ffffff;fill-opacity:1;stroke:none;stroke-width:2.24459;stroke-opacity:1"
     d="M 42.75488,61.872736 C 40.938851,58.059192 39.122952,54.24559 37.306842,50.432084 27.354961,46.737026 17.40311,43.041897 7.4507154,39.348125 7.0560972,49.620527 6.6557572,59.892727 6.2563233,70.164956 15.594192,80.109334 24.930439,90.055126 34.267738,100 H 65.732263 C 75.069562,90.055126 84.405808,80.109334 93.743677,70.164956 93.344153,59.89273 92.945782,49.62046 92.549285,39.348125 82.596889,43.041891 72.645041,46.73703 62.693159,50.432084 60.877049,54.24559 59.06115,58.059192 57.245121,61.872736 57.303198,61.882072 50,44.592361 50,44.592361 Z" />
  <path
     style="fill:#808080;fill-opacity:1;stroke:none;stroke-width:2.24459;stroke-opacity:1"
     d="M 89.937196,68.830592 88.996043,44.54348 65.467194,53.278545 49.386906,87.052404 50,96.38363 h 14.068908"
     id="path6" />
  <path
     style="fill:#808080;fill-opacity:1;stroke:none;stroke-width:2.24459;stroke-opacity:1"
     d="M 10.062805,68.830588 11.003958,44.543476 34.532807,53.278542 50.613095,87.0524 50,96.38363 H 35.931093"
     id="path7" />
  <path
     style="fill:#262626;fill-opacity:1;stroke:none;stroke-width:2;stroke-dasharray:none;stroke-opacity:1"
     d="M 11.003958,44.543476 10.062805,68.830588 35.931093,96.38363 h 7.034454 z"
     id="path16" />
  <path
     style="fill:#262626;fill-opacity:1;stroke:none;stroke-width:2;stroke-dasharray:none;stroke-opacity:1"
     d="M 88.996043,44.54348 89.937196,68.830592 64.068908,96.38363 h -7.034454 z"
     id="path17" />
  <path
     style="fill:none;fill-opacity:1;stroke:#ffffff;stroke-width:3;stroke-dasharray:none;stroke-opacity:1"
     d="M 50,5.9744074 V 66.592361"
     id="path19" />
</svg>
